<?xml version="1.0" encoding="UTF-8"?>
<svg width="24px" height="24px" viewBox="0 0 24 24" version="1.1" xmlns="http://www.w3.org/2000/svg" xmlns:xlink="http://www.w3.org/1999/xlink">
    <title>Arrow/Left</title>
    <g id="Arrow/Left" stroke="none" stroke-width="1" fill="none" fill-rule="evenodd">
        <path d="M1.25106682,11.9553153 L1.25,12 C1.25,11.9626644 1.2527281,11.925966 1.25799583,11.8900933 C1.2605611,11.8675474 1.26482874,11.8448201 1.27015045,11.8222912 C1.273737,11.8117733 1.27646937,11.8015064 1.27941153,11.7913286 C1.28521104,11.7663027 1.29363876,11.7414248 1.30340621,11.7169575 C1.30775201,11.7108135 1.31030071,11.7047943 1.31292515,11.6988159 C1.33345797,11.6464399 1.36220158,11.5961557 1.39717935,11.5490429 L1.46982156,11.4649452 L9.46982156,3.46951831 C9.7627985,3.17670885 10.2376722,3.17684461 10.5304817,3.46982156 C10.7966721,3.73616424 10.820759,4.15283482 10.6028206,4.44638402 L10.5301784,4.53048169 L3.807,11.25 L22,11.25 C22.4142136,11.25 22.75,11.5857864 22.75,12 C22.75,12.3796958 22.4678461,12.693491 22.1017706,12.7431534 L22,12.75 L3.815,12.75 L10.5304816,19.4698215 C10.7966721,19.7361641 10.8207591,20.1528347 10.6028207,20.4463839 L10.5301785,20.5304816 C10.2638359,20.7966721 9.84716531,20.8207591 9.55361608,20.6028207 L9.4695184,20.5301785 L1.508677,12.5666738 C1.35021199,12.4291609 1.25,12.2262833 1.25,12 L1.25002411,11.9893961 C1.25011495,11.978031 1.25046252,11.9666676 1.25106682,11.9553153 Z" id="Combined-Shape" fill="#000000" fill-rule="nonzero"></path>
    </g>
</svg>